<?xml version="1.0" encoding="utf-8"?>
<!-- Generator: Adobe Illustrator 23.0.2, SVG Export Plug-In . SVG Version: 6.00 Build 0)  -->
<svg version="1.1" id="svg3099" xmlns:svg="http://www.w3.org/2000/svg"
	 xmlns="http://www.w3.org/2000/svg" xmlns:xlink="http://www.w3.org/1999/xlink" x="0px" y="0px" viewBox="0 0 235 140"
	 style="enable-background:new 0 0 235 140;" xml:space="preserve">
<style type="text/css">
	.st0{fill:#FF4822;}
</style>
<g id="layer1" transform="translate(-205.71018,-400.38197)">
	<path id="path168" class="st0" d="M290.4,402.4c-8.6,0-14,6.2-14,14c0,7.5,5.4,14,14,14c8.4,0,13.8-6.5,13.8-14
		C304.3,408.6,298.9,402.4,290.4,402.4"/>
	<path id="path172" class="st0" d="M296.4,445.7H248v-35.9c0-3.3-2.7-6-6-6h-12c-3.3,0-6,2.7-6,6v35.9h-9.1c-3.3,0-6,2.7-6,6v8.2
		c0,3.3,2.7,6,6,6h9.1v46.2c0,17.7,8.1,26.2,26.4,26.2c5.2,0,9.7-0.7,13.9-1.7c2.2-0.5,3.2-2.6,3.1-4c-0.1-3.6-0.5-8.9-0.5-10.6
		c0-1.8-1.3-3.6-4.5-3.2c-2.1,0.3-2.7,0.3-4.6,0.3c-7.5,0-9.8-3-9.8-9.2V466h30.5v64.8c0,3.3,2.7,6,6,6h12c3.3,0,6-2.7,6-6v-79
		C302.5,448.4,299.7,445.7,296.4,445.7"/>
	<path id="path176" class="st0" d="M423.7,510.2c-8.2,0-13.8,5.6-13.8,13.8c0,8.2,5.6,13.8,13.8,13.8c8.2,0,13.8-5.6,13.8-13.8
		C437.5,515.8,431.9,510.2,423.7,510.2"/>
	<path id="path180" class="st0" d="M419.3,460v-8.2c0-3.3-2.7-6-6-6h-16.2v-13.4c0-6.3,5.7-9.2,13.2-9.2c1.9,0,2.4,0.2,4.6,0.3
		c3.2,0.1,5-2.2,5-4c0-1.7,0.2-4.4,0.3-8.4c0.1-2.9-2.1-5.5-5.4-6.2c-4.3-0.9-10.1-1-15.3-1c-18.3,0-26.4,8.5-26.4,26.2l-0.1,15.8
		h-26.8v-13.4c0-6.3,5.7-9.2,13.2-9.2c1.9,0,2.4,0.2,4.6,0.3c3.2,0.1,5-2.2,5-4c0-1.7,0.2-4.4,0.3-8.4c0-2.9-2.1-5.5-5.4-6.2
		c-4.3-0.9-10.1-1-15.3-1c-18.3,0-26.4,8.5-26.4,26.2l-0.1,15.8H313c-3.3,0-6,2.7-6,6v8.2c0,3.3,2.7,6,6,6h9.1v64.8c0,3.3,2.7,6,6,6
		h12c3.3,0,6-2.7,6-6l0.1-64.8H373v64.8c0,3.3,2.7,6,6,6h12c3.3,0,6-2.7,6-6V466h16.3C416.6,466,419.3,463.3,419.3,460"/>
</g>
</svg>
